<svg width="143" height="167" viewBox="0 0 143 167" fill="none" xmlns="http://www.w3.org/2000/svg">
<path d="M-0.00012207 29.7621C-0.00012207 29.0028 0.614607 28.3872 1.37291 28.3872C2.13122 28.3872 2.74595 29.0028 2.74595 29.7621C2.74595 30.5215 2.13122 31.1371 1.37291 31.1371C0.614607 31.1371 -0.00012207 30.5215 -0.00012207 29.7621Z" fill="#B8B8B8"/>
<path d="M62.2442 29.7621C62.2442 29.0028 62.8589 28.3872 63.6172 28.3872C64.3756 28.3872 64.9903 29.0028 64.9903 29.7621C64.9903 30.5215 64.3756 31.1371 63.6172 31.1371C62.8589 31.1371 62.2442 30.5215 62.2442 29.7621Z" fill="#B8B8B8"/>
<path d="M31.122 29.7621C31.122 29.0028 31.7368 28.3872 32.4951 28.3872C33.2534 28.3872 33.8681 29.0028 33.8681 29.7621C33.8681 30.5215 33.2534 31.1371 32.4951 31.1371C31.7368 31.1371 31.122 30.5215 31.122 29.7621Z" fill="#B8B8B8"/>
<path d="M93.3664 29.7621C93.3664 29.0028 93.9811 28.3872 94.7394 28.3872C95.4977 28.3872 96.1124 29.0028 96.1124 29.7621C96.1124 30.5215 95.4977 31.1371 94.7394 31.1371C93.9811 31.1371 93.3664 30.5215 93.3664 29.7621Z" fill="#B8B8B8"/>
<path d="M124.489 29.7621C124.489 29.0028 125.103 28.3872 125.862 28.3872C126.62 28.3872 127.235 29.0028 127.235 29.7621C127.235 30.5215 126.62 31.1371 125.862 31.1371C125.103 31.1371 124.489 30.5215 124.489 29.7621Z" fill="#B8B8B8"/>
<path d="M15.561 29.7621C15.561 29.0028 16.1757 28.3872 16.934 28.3872C17.6923 28.3872 18.307 29.0028 18.307 29.7621C18.307 30.5215 17.6923 31.1371 16.934 31.1371C16.1757 31.1371 15.561 30.5215 15.561 29.7621Z" fill="#B8B8B8"/>
<path d="M77.8053 29.7621C77.8053 29.0028 78.42 28.3872 79.1783 28.3872C79.9366 28.3872 80.5514 29.0028 80.5514 29.7621C80.5514 30.5215 79.9366 31.1371 79.1783 31.1371C78.42 31.1371 77.8053 30.5215 77.8053 29.7621Z" fill="#B8B8B8"/>
<path d="M46.6831 29.7621C46.6831 29.0028 47.2979 28.3872 48.0562 28.3872C48.8145 28.3872 49.4292 29.0028 49.4292 29.7621C49.4292 30.5215 48.8145 31.1371 48.0562 31.1371C47.2979 31.1371 46.6831 30.5215 46.6831 29.7621Z" fill="#B8B8B8"/>
<path d="M108.927 29.7621C108.927 29.0028 109.542 28.3872 110.3 28.3872C111.059 28.3872 111.674 29.0028 111.674 29.7621C111.674 30.5215 111.059 31.1371 110.3 31.1371C109.542 31.1371 108.927 30.5215 108.927 29.7621Z" fill="#B8B8B8"/>
<path d="M140.05 29.7621C140.05 29.0028 140.664 28.3872 141.423 28.3872C142.181 28.3872 142.796 29.0028 142.796 29.7621C142.796 30.5215 142.181 31.1371 141.423 31.1371C140.664 31.1371 140.05 30.5215 140.05 29.7621Z" fill="#B8B8B8"/>
<path d="M-0.00012207 45.3447C-0.00012207 44.5854 0.614607 43.9698 1.37291 43.9698C2.13122 43.9698 2.74595 44.5854 2.74595 45.3447C2.74595 46.1041 2.13122 46.7197 1.37291 46.7197C0.614607 46.7197 -0.00012207 46.1041 -0.00012207 45.3447Z" fill="#B8B8B8"/>
<path d="M62.2442 45.3447C62.2442 44.5854 62.8589 43.9698 63.6172 43.9698C64.3756 43.9698 64.9903 44.5854 64.9903 45.3447C64.9903 46.1041 64.3756 46.7197 63.6172 46.7197C62.8589 46.7197 62.2442 46.1041 62.2442 45.3447Z" fill="#B8B8B8"/>
<path d="M31.122 45.3447C31.122 44.5854 31.7368 43.9698 32.4951 43.9698C33.2534 43.9698 33.8681 44.5854 33.8681 45.3447C33.8681 46.1041 33.2534 46.7197 32.4951 46.7197C31.7368 46.7197 31.122 46.1041 31.122 45.3447Z" fill="#B8B8B8"/>
<path d="M93.3664 45.3447C93.3664 44.5854 93.9811 43.9698 94.7394 43.9698C95.4977 43.9698 96.1124 44.5854 96.1124 45.3447C96.1124 46.1041 95.4977 46.7197 94.7394 46.7197C93.9811 46.7197 93.3664 46.1041 93.3664 45.3447Z" fill="#B8B8B8"/>
<path d="M124.489 45.3447C124.489 44.5854 125.103 43.9698 125.862 43.9698C126.62 43.9698 127.235 44.5854 127.235 45.3447C127.235 46.1041 126.62 46.7197 125.862 46.7197C125.103 46.7197 124.489 46.1041 124.489 45.3447Z" fill="#B8B8B8"/>
<path d="M15.561 45.3447C15.561 44.5854 16.1757 43.9698 16.934 43.9698C17.6923 43.9698 18.307 44.5854 18.307 45.3447C18.307 46.1041 17.6923 46.7197 16.934 46.7197C16.1757 46.7197 15.561 46.1041 15.561 45.3447Z" fill="#B8B8B8"/>
<path d="M77.8053 45.3447C77.8053 44.5854 78.42 43.9698 79.1783 43.9698C79.9366 43.9698 80.5514 44.5854 80.5514 45.3447C80.5514 46.1041 79.9366 46.7197 79.1783 46.7197C78.42 46.7197 77.8053 46.1041 77.8053 45.3447Z" fill="#B8B8B8"/>
<path d="M46.6831 45.3447C46.6831 44.5854 47.2979 43.9698 48.0562 43.9698C48.8145 43.9698 49.4292 44.5854 49.4292 45.3447C49.4292 46.1041 48.8145 46.7197 48.0562 46.7197C47.2979 46.7197 46.6831 46.1041 46.6831 45.3447Z" fill="#B8B8B8"/>
<path d="M108.927 45.3447C108.927 44.5854 109.542 43.9698 110.3 43.9698C111.059 43.9698 111.674 44.5854 111.674 45.3447C111.674 46.1041 111.059 46.7197 110.3 46.7197C109.542 46.7197 108.927 46.1041 108.927 45.3447Z" fill="#B8B8B8"/>
<path d="M140.05 45.3447C140.05 44.5854 140.664 43.9698 141.423 43.9698C142.181 43.9698 142.796 44.5854 142.796 45.3447C142.796 46.1041 142.181 46.7197 141.423 46.7197C140.664 46.7197 140.05 46.1041 140.05 45.3447Z" fill="#B8B8B8"/>
<path d="M-0.00012207 60.9273C-0.00012207 60.168 0.614607 59.5524 1.37291 59.5524C2.13122 59.5524 2.74595 60.168 2.74595 60.9273C2.74595 61.6867 2.13122 62.3023 1.37291 62.3023C0.614607 62.3023 -0.00012207 61.6867 -0.00012207 60.9273Z" fill="#B8B8B8"/>
<path d="M62.2442 60.9273C62.2442 60.168 62.8589 59.5524 63.6172 59.5524C64.3756 59.5524 64.9903 60.168 64.9903 60.9273C64.9903 61.6867 64.3756 62.3023 63.6172 62.3023C62.8589 62.3023 62.2442 61.6867 62.2442 60.9273Z" fill="#B8B8B8"/>
<path d="M31.122 60.9273C31.122 60.168 31.7368 59.5524 32.4951 59.5524C33.2534 59.5524 33.8681 60.168 33.8681 60.9273C33.8681 61.6867 33.2534 62.3023 32.4951 62.3023C31.7368 62.3023 31.122 61.6867 31.122 60.9273Z" fill="#B8B8B8"/>
<path d="M93.3664 60.9273C93.3664 60.168 93.9811 59.5524 94.7394 59.5524C95.4977 59.5524 96.1124 60.168 96.1124 60.9273C96.1124 61.6867 95.4977 62.3023 94.7394 62.3023C93.9811 62.3023 93.3664 61.6867 93.3664 60.9273Z" fill="#B8B8B8"/>
<path d="M124.489 60.9273C124.489 60.168 125.103 59.5524 125.862 59.5524C126.62 59.5524 127.235 60.168 127.235 60.9273C127.235 61.6867 126.62 62.3023 125.862 62.3023C125.103 62.3023 124.489 61.6867 124.489 60.9273Z" fill="#B8B8B8"/>
<path d="M15.561 60.9273C15.561 60.168 16.1757 59.5524 16.934 59.5524C17.6923 59.5524 18.307 60.168 18.307 60.9273C18.307 61.6867 17.6923 62.3023 16.934 62.3023C16.1757 62.3023 15.561 61.6867 15.561 60.9273Z" fill="#B8B8B8"/>
<path d="M77.8053 60.9273C77.8053 60.168 78.42 59.5524 79.1783 59.5524C79.9366 59.5524 80.5514 60.168 80.5514 60.9273C80.5514 61.6867 79.9366 62.3023 79.1783 62.3023C78.42 62.3023 77.8053 61.6867 77.8053 60.9273Z" fill="#B8B8B8"/>
<path d="M46.6831 60.9273C46.6831 60.168 47.2979 59.5524 48.0562 59.5524C48.8145 59.5524 49.4292 60.168 49.4292 60.9273C49.4292 61.6867 48.8145 62.3023 48.0562 62.3023C47.2979 62.3023 46.6831 61.6867 46.6831 60.9273Z" fill="#B8B8B8"/>
<path d="M108.927 60.9273C108.927 60.168 109.542 59.5524 110.3 59.5524C111.059 59.5524 111.674 60.168 111.674 60.9273C111.674 61.6867 111.059 62.3023 110.3 62.3023C109.542 62.3023 108.927 61.6867 108.927 60.9273Z" fill="#B8B8B8"/>
<path d="M140.05 60.9273C140.05 60.168 140.664 59.5524 141.423 59.5524C142.181 59.5524 142.796 60.168 142.796 60.9273C142.796 61.6867 142.181 62.3023 141.423 62.3023C140.664 62.3023 140.05 61.6867 140.05 60.9273Z" fill="#B8B8B8"/>
<path d="M-0.00012207 76.5099C-0.00012207 75.7506 0.614607 75.135 1.37291 75.135C2.13122 75.135 2.74595 75.7506 2.74595 76.5099C2.74595 77.2693 2.13122 77.8849 1.37291 77.8849C0.614607 77.8849 -0.00012207 77.2693 -0.00012207 76.5099Z" fill="#B8B8B8"/>
<path d="M62.2442 76.5099C62.2442 75.7506 62.8589 75.135 63.6172 75.135C64.3756 75.135 64.9903 75.7506 64.9903 76.5099C64.9903 77.2693 64.3756 77.8849 63.6172 77.8849C62.8589 77.8849 62.2442 77.2693 62.2442 76.5099Z" fill="#B8B8B8"/>
<path d="M31.122 76.5099C31.122 75.7506 31.7368 75.135 32.4951 75.135C33.2534 75.135 33.8681 75.7506 33.8681 76.5099C33.8681 77.2693 33.2534 77.8849 32.4951 77.8849C31.7368 77.8849 31.122 77.2693 31.122 76.5099Z" fill="#B8B8B8"/>
<path d="M93.3664 76.5099C93.3664 75.7506 93.9811 75.135 94.7394 75.135C95.4977 75.135 96.1124 75.7506 96.1124 76.5099C96.1124 77.2693 95.4977 77.8849 94.7394 77.8849C93.9811 77.8849 93.3664 77.2693 93.3664 76.5099Z" fill="#B8B8B8"/>
<path d="M124.489 76.5099C124.489 75.7506 125.103 75.135 125.862 75.135C126.62 75.135 127.235 75.7506 127.235 76.5099C127.235 77.2693 126.62 77.8849 125.862 77.8849C125.103 77.8849 124.489 77.2693 124.489 76.5099Z" fill="#B8B8B8"/>
<path d="M15.561 76.5099C15.561 75.7506 16.1757 75.135 16.934 75.135C17.6923 75.135 18.307 75.7506 18.307 76.5099C18.307 77.2693 17.6923 77.8849 16.934 77.8849C16.1757 77.8849 15.561 77.2693 15.561 76.5099Z" fill="#B8B8B8"/>
<path d="M77.8053 76.5099C77.8053 75.7506 78.42 75.135 79.1783 75.135C79.9366 75.135 80.5514 75.7506 80.5514 76.5099C80.5514 77.2693 79.9366 77.8849 79.1783 77.8849C78.42 77.8849 77.8053 77.2693 77.8053 76.5099Z" fill="#B8B8B8"/>
<path d="M46.6831 76.5099C46.6831 75.7506 47.2979 75.135 48.0562 75.135C48.8145 75.135 49.4292 75.7506 49.4292 76.5099C49.4292 77.2693 48.8145 77.8849 48.0562 77.8849C47.2979 77.8849 46.6831 77.2693 46.6831 76.5099Z" fill="#B8B8B8"/>
<path d="M108.927 76.5099C108.927 75.7506 109.542 75.135 110.3 75.135C111.059 75.135 111.674 75.7506 111.674 76.5099C111.674 77.2693 111.059 77.8849 110.3 77.8849C109.542 77.8849 108.927 77.2693 108.927 76.5099Z" fill="#B8B8B8"/>
<path d="M140.05 76.5099C140.05 75.7506 140.664 75.135 141.423 75.135C142.181 75.135 142.796 75.7506 142.796 76.5099C142.796 77.2693 142.181 77.8849 141.423 77.8849C140.664 77.8849 140.05 77.2693 140.05 76.5099Z" fill="#B8B8B8"/>
<path d="M-0.00012207 92.0925C-0.00012207 91.3332 0.614607 90.7176 1.37291 90.7176C2.13122 90.7176 2.74595 91.3332 2.74595 92.0925C2.74595 92.8519 2.13122 93.4675 1.37291 93.4675C0.614607 93.4675 -0.00012207 92.8519 -0.00012207 92.0925Z" fill="#B8B8B8"/>
<path d="M62.2442 92.0925C62.2442 91.3332 62.8589 90.7176 63.6172 90.7176C64.3756 90.7176 64.9903 91.3332 64.9903 92.0925C64.9903 92.8519 64.3756 93.4675 63.6172 93.4675C62.8589 93.4675 62.2442 92.8519 62.2442 92.0925Z" fill="#B8B8B8"/>
<path d="M31.122 92.0925C31.122 91.3332 31.7368 90.7176 32.4951 90.7176C33.2534 90.7176 33.8681 91.3332 33.8681 92.0925C33.8681 92.8519 33.2534 93.4675 32.4951 93.4675C31.7368 93.4675 31.122 92.8519 31.122 92.0925Z" fill="#B8B8B8"/>
<path d="M93.3664 92.0925C93.3664 91.3332 93.9811 90.7176 94.7394 90.7176C95.4977 90.7176 96.1124 91.3332 96.1124 92.0925C96.1124 92.8519 95.4977 93.4675 94.7394 93.4675C93.9811 93.4675 93.3664 92.8519 93.3664 92.0925Z" fill="#B8B8B8"/>
<path d="M124.489 92.0925C124.489 91.3332 125.103 90.7176 125.862 90.7176C126.62 90.7176 127.235 91.3332 127.235 92.0925C127.235 92.8519 126.62 93.4675 125.862 93.4675C125.103 93.4675 124.489 92.8519 124.489 92.0925Z" fill="#B8B8B8"/>
<path d="M15.561 92.0925C15.561 91.3332 16.1757 90.7176 16.934 90.7176C17.6923 90.7176 18.307 91.3332 18.307 92.0925C18.307 92.8519 17.6923 93.4675 16.934 93.4675C16.1757 93.4675 15.561 92.8519 15.561 92.0925Z" fill="#B8B8B8"/>
<path d="M77.8053 92.0925C77.8053 91.3332 78.42 90.7176 79.1783 90.7176C79.9366 90.7176 80.5514 91.3332 80.5514 92.0925C80.5514 92.8519 79.9366 93.4675 79.1783 93.4675C78.42 93.4675 77.8053 92.8519 77.8053 92.0925Z" fill="#B8B8B8"/>
<path d="M46.6831 92.0925C46.6831 91.3332 47.2979 90.7176 48.0562 90.7176C48.8145 90.7176 49.4292 91.3332 49.4292 92.0925C49.4292 92.8519 48.8145 93.4675 48.0562 93.4675C47.2979 93.4675 46.6831 92.8519 46.6831 92.0925Z" fill="#B8B8B8"/>
<path d="M108.927 92.0925C108.927 91.3332 109.542 90.7176 110.3 90.7176C111.059 90.7176 111.674 91.3332 111.674 92.0925C111.674 92.8519 111.059 93.4675 110.3 93.4675C109.542 93.4675 108.927 92.8519 108.927 92.0925Z" fill="#B8B8B8"/>
<path d="M140.05 92.0925C140.05 91.3332 140.664 90.7176 141.423 90.7176C142.181 90.7176 142.796 91.3332 142.796 92.0925C142.796 92.8519 142.181 93.4675 141.423 93.4675C140.664 93.4675 140.05 92.8519 140.05 92.0925Z" fill="#B8B8B8"/>
<path d="M-0.00012207 107.675C-0.00012207 106.916 0.614607 106.3 1.37291 106.3C2.13122 106.3 2.74595 106.916 2.74595 107.675C2.74595 108.434 2.13122 109.05 1.37291 109.05C0.614607 109.05 -0.00012207 108.434 -0.00012207 107.675Z" fill="#B8B8B8"/>
<path d="M62.2442 107.675C62.2442 106.916 62.8589 106.3 63.6172 106.3C64.3756 106.3 64.9903 106.916 64.9903 107.675C64.9903 108.434 64.3756 109.05 63.6172 109.05C62.8589 109.05 62.2442 108.434 62.2442 107.675Z" fill="#B8B8B8"/>
<path d="M31.122 107.675C31.122 106.916 31.7368 106.3 32.4951 106.3C33.2534 106.3 33.8681 106.916 33.8681 107.675C33.8681 108.434 33.2534 109.05 32.4951 109.05C31.7368 109.05 31.122 108.434 31.122 107.675Z" fill="#B8B8B8"/>
<path d="M93.3664 107.675C93.3664 106.916 93.9811 106.3 94.7394 106.3C95.4977 106.3 96.1124 106.916 96.1124 107.675C96.1124 108.434 95.4977 109.05 94.7394 109.05C93.9811 109.05 93.3664 108.434 93.3664 107.675Z" fill="#B8B8B8"/>
<path d="M124.489 107.675C124.489 106.916 125.103 106.3 125.862 106.3C126.62 106.3 127.235 106.916 127.235 107.675C127.235 108.434 126.62 109.05 125.862 109.05C125.103 109.05 124.489 108.434 124.489 107.675Z" fill="#B8B8B8"/>
<path d="M15.561 107.675C15.561 106.916 16.1757 106.3 16.934 106.3C17.6923 106.3 18.307 106.916 18.307 107.675C18.307 108.434 17.6923 109.05 16.934 109.05C16.1757 109.05 15.561 108.434 15.561 107.675Z" fill="#B8B8B8"/>
<path d="M77.8053 107.675C77.8053 106.916 78.42 106.3 79.1783 106.3C79.9366 106.3 80.5514 106.916 80.5514 107.675C80.5514 108.434 79.9366 109.05 79.1783 109.05C78.42 109.05 77.8053 108.434 77.8053 107.675Z" fill="#B8B8B8"/>
<path d="M46.6831 107.675C46.6831 106.916 47.2979 106.3 48.0562 106.3C48.8145 106.3 49.4292 106.916 49.4292 107.675C49.4292 108.434 48.8145 109.05 48.0562 109.05C47.2979 109.05 46.6831 108.434 46.6831 107.675Z" fill="#B8B8B8"/>
<path d="M108.927 107.675C108.927 106.916 109.542 106.3 110.3 106.3C111.059 106.3 111.674 106.916 111.674 107.675C111.674 108.434 111.059 109.05 110.3 109.05C109.542 109.05 108.927 108.434 108.927 107.675Z" fill="#B8B8B8"/>
<path d="M140.05 107.675C140.05 106.916 140.664 106.3 141.423 106.3C142.181 106.3 142.796 106.916 142.796 107.675C142.796 108.434 142.181 109.05 141.423 109.05C140.664 109.05 140.05 108.434 140.05 107.675Z" fill="#B8B8B8"/>
<path d="M-0.00012207 123.258C-0.00012207 122.498 0.614607 121.883 1.37291 121.883C2.13122 121.883 2.74595 122.498 2.74595 123.258C2.74595 124.017 2.13122 124.633 1.37291 124.633C0.614607 124.633 -0.00012207 124.017 -0.00012207 123.258Z" fill="#B8B8B8"/>
<path d="M62.2442 123.258C62.2442 122.498 62.8589 121.883 63.6172 121.883C64.3756 121.883 64.9903 122.498 64.9903 123.258C64.9903 124.017 64.3756 124.633 63.6172 124.633C62.8589 124.633 62.2442 124.017 62.2442 123.258Z" fill="#B8B8B8"/>
<path d="M31.122 123.258C31.122 122.498 31.7368 121.883 32.4951 121.883C33.2534 121.883 33.8681 122.498 33.8681 123.258C33.8681 124.017 33.2534 124.633 32.4951 124.633C31.7368 124.633 31.122 124.017 31.122 123.258Z" fill="#B8B8B8"/>
<path d="M93.3664 123.258C93.3664 122.498 93.9811 121.883 94.7394 121.883C95.4977 121.883 96.1124 122.498 96.1124 123.258C96.1124 124.017 95.4977 124.633 94.7394 124.633C93.9811 124.633 93.3664 124.017 93.3664 123.258Z" fill="#B8B8B8"/>
<path d="M124.489 123.258C124.489 122.498 125.103 121.883 125.862 121.883C126.62 121.883 127.235 122.498 127.235 123.258C127.235 124.017 126.62 124.633 125.862 124.633C125.103 124.633 124.489 124.017 124.489 123.258Z" fill="#B8B8B8"/>
<path d="M15.561 123.258C15.561 122.498 16.1757 121.883 16.934 121.883C17.6923 121.883 18.307 122.498 18.307 123.258C18.307 124.017 17.6923 124.633 16.934 124.633C16.1757 124.633 15.561 124.017 15.561 123.258Z" fill="#B8B8B8"/>
<path d="M77.8053 123.258C77.8053 122.498 78.42 121.883 79.1783 121.883C79.9366 121.883 80.5514 122.498 80.5514 123.258C80.5514 124.017 79.9366 124.633 79.1783 124.633C78.42 124.633 77.8053 124.017 77.8053 123.258Z" fill="#B8B8B8"/>
<path d="M46.6831 123.258C46.6831 122.498 47.2979 121.883 48.0562 121.883C48.8145 121.883 49.4292 122.498 49.4292 123.258C49.4292 124.017 48.8145 124.633 48.0562 124.633C47.2979 124.633 46.6831 124.017 46.6831 123.258Z" fill="#B8B8B8"/>
<path d="M108.927 123.258C108.927 122.498 109.542 121.883 110.3 121.883C111.059 121.883 111.674 122.498 111.674 123.258C111.674 124.017 111.059 124.633 110.3 124.633C109.542 124.633 108.927 124.017 108.927 123.258Z" fill="#B8B8B8"/>
<path d="M140.05 123.258C140.05 122.498 140.664 121.883 141.423 121.883C142.181 121.883 142.796 122.498 142.796 123.258C142.796 124.017 142.181 124.633 141.423 124.633C140.664 124.633 140.05 124.017 140.05 123.258Z" fill="#B8B8B8"/>
<path d="M-0.00012207 138.84C-0.00012207 138.081 0.614607 137.465 1.37291 137.465C2.13122 137.465 2.74595 138.081 2.74595 138.84C2.74595 139.6 2.13122 140.215 1.37291 140.215C0.614607 140.215 -0.00012207 139.6 -0.00012207 138.84Z" fill="#B8B8B8"/>
<path d="M62.2442 138.84C62.2442 138.081 62.8589 137.465 63.6172 137.465C64.3756 137.465 64.9903 138.081 64.9903 138.84C64.9903 139.6 64.3756 140.215 63.6172 140.215C62.8589 140.215 62.2442 139.6 62.2442 138.84Z" fill="#B8B8B8"/>
<path d="M31.122 138.84C31.122 138.081 31.7368 137.465 32.4951 137.465C33.2534 137.465 33.8681 138.081 33.8681 138.84C33.8681 139.6 33.2534 140.215 32.4951 140.215C31.7368 140.215 31.122 139.6 31.122 138.84Z" fill="#B8B8B8"/>
<path d="M93.3664 138.84C93.3664 138.081 93.9811 137.465 94.7394 137.465C95.4977 137.465 96.1124 138.081 96.1124 138.84C96.1124 139.6 95.4977 140.215 94.7394 140.215C93.9811 140.215 93.3664 139.6 93.3664 138.84Z" fill="#B8B8B8"/>
<path d="M124.489 138.84C124.489 138.081 125.103 137.465 125.862 137.465C126.62 137.465 127.235 138.081 127.235 138.84C127.235 139.6 126.62 140.215 125.862 140.215C125.103 140.215 124.489 139.6 124.489 138.84Z" fill="#B8B8B8"/>
<path d="M15.561 138.84C15.561 138.081 16.1757 137.465 16.934 137.465C17.6923 137.465 18.307 138.081 18.307 138.84C18.307 139.6 17.6923 140.215 16.934 140.215C16.1757 140.215 15.561 139.6 15.561 138.84Z" fill="#B8B8B8"/>
<path d="M77.8053 138.84C77.8053 138.081 78.42 137.465 79.1783 137.465C79.9366 137.465 80.5514 138.081 80.5514 138.84C80.5514 139.6 79.9366 140.215 79.1783 140.215C78.42 140.215 77.8053 139.6 77.8053 138.84Z" fill="#B8B8B8"/>
<path d="M46.6831 138.84C46.6831 138.081 47.2979 137.465 48.0562 137.465C48.8145 137.465 49.4292 138.081 49.4292 138.84C49.4292 139.6 48.8145 140.215 48.0562 140.215C47.2979 140.215 46.6831 139.6 46.6831 138.84Z" fill="#B8B8B8"/>
<path d="M108.927 138.84C108.927 138.081 109.542 137.465 110.3 137.465C111.059 137.465 111.674 138.081 111.674 138.84C111.674 139.6 111.059 140.215 110.3 140.215C109.542 140.215 108.927 139.6 108.927 138.84Z" fill="#B8B8B8"/>
<path d="M140.05 138.84C140.05 138.081 140.664 137.465 141.423 137.465C142.181 137.465 142.796 138.081 142.796 138.84C142.796 139.6 142.181 140.215 141.423 140.215C140.664 140.215 140.05 139.6 140.05 138.84Z" fill="#B8B8B8"/>
<path d="M15.4839 52.9893C15.4839 44.1527 22.6473 36.9893 31.4839 36.9893H113.032C121.869 36.9893 129.032 44.1528 129.032 52.9893V117.893C129.032 126.73 121.869 133.893 113.032 133.893H31.4839C22.6473 133.893 15.4839 126.73 15.4839 117.893V52.9893Z" fill="white"/>
<path fill-rule="evenodd" clip-rule="evenodd" d="M31.9591 10.4033C31.9591 4.65772 36.6168 3.05176e-05 42.3623 3.05176e-05H102.154C107.899 3.05176e-05 112.557 4.65772 112.557 10.4033V156.049C112.557 161.794 107.899 166.452 102.154 166.452H42.3623C36.6168 166.452 31.9591 161.794 31.9591 156.049V10.4033Z" fill="#D4D0EC"/>
<path fill-rule="evenodd" clip-rule="evenodd" d="M36.2578 11.0539C36.2578 7.10384 39.46 3.90168 43.41 3.90168H50.6693C51.3855 3.90168 51.9767 4.4851 52.1336 5.18387C52.5185 6.89854 53.7877 9.72522 57.9721 9.72522C61.2061 9.72522 83.3824 9.72522 86.6165 9.72522C90.8009 9.72522 92.07 6.89854 92.455 5.18387C92.6118 4.48511 93.2031 3.90168 93.9193 3.90168H101.179C105.129 3.90168 108.331 7.10384 108.331 11.0539V155.399C108.331 159.349 105.129 162.551 101.179 162.551H43.41C39.46 162.551 36.2578 159.349 36.2578 155.399V11.0539Z" fill="white"/>
<mask id="mask0_218_1308" style="mask-type:alpha" maskUnits="userSpaceOnUse" x="36" y="0" width="73" height="133">
<path fill-rule="evenodd" clip-rule="evenodd" d="M36.1289 13.3316C36.1289 5.96877 42.0976 3.05176e-05 49.4604 3.05176e-05C50.7953 3.05176e-05 51.8846 1.1403 52.5518 2.29648C53.2765 3.55222 54.7799 4.85483 57.899 4.85483C61.1413 4.85483 83.3746 4.85483 86.617 4.85483C89.736 4.85483 91.2395 3.55222 91.9641 2.29648C92.6313 1.1403 93.7206 3.05176e-05 95.0555 3.05176e-05C102.418 3.05176e-05 108.387 5.96876 108.387 13.3316V111.582C108.387 123.001 99.1299 132.258 87.7107 132.258H56.8053C45.386 132.258 36.1289 123.001 36.1289 111.582V13.3316Z" fill="white"/>
</mask>
<g mask="url(#mask0_218_1308)">
<path d="M59.9622 86.3488L54.0808 87.9968C41.8503 91.4239 33.1034 102.182 32.244 114.854L31.5544 125.021H112.875L112.296 115.469C111.503 102.4 102.327 91.3548 89.625 88.1801L82.298 86.3488H59.9622Z" fill="url(#paint0_linear_218_1308)"/>
<g clip-path="url(#clip0_218_1308)">
<path d="M62.2494 76.0045C62.5434 71.2127 66.5154 67.477 71.3162 67.477C76.113 67.477 80.0831 71.2067 80.3823 75.9942L81.0698 86.994C74.7095 88.6429 67.9669 88.7807 61.5529 87.3554H61.5529L62.2494 76.0045Z" fill="#E4EFFD"/>
<path d="M54.3934 60.5567C54.3934 60.5567 51.8147 51.4885 51.6858 47.7495C51.6858 47.7495 53.3189 45.2997 55.6827 44.1823C55.6827 44.1823 53.233 44.9559 51.6858 46.5891C51.6858 46.5891 53.0181 43.4517 57.5307 42.6351C58.949 38.6812 62.731 35.4579 65.0948 34.8132C63.4616 36.4894 63.0318 37.4778 63.0318 37.4778C63.0318 37.4778 66.4271 34.8562 74.077 35.0711C71.6703 35.7158 70.5099 36.7043 70.5099 36.7043C70.5099 36.7043 73.0026 35.6728 80.1369 38.5093C87.3141 41.3458 90.3225 47.1907 90.3225 47.1907L87.8298 60.8146L54.3934 60.5567Z" fill="white"/>
<path d="M54.3934 60.5567C54.3934 60.5567 51.8147 51.4885 51.6858 47.7495C51.6858 47.7495 53.3189 45.2997 55.6827 44.1823C55.6827 44.1823 53.233 44.9559 51.6858 46.5891C51.6858 46.5891 53.0181 43.4517 57.5307 42.6351C58.949 38.6812 62.731 35.4579 65.0948 34.8132C63.4616 36.4894 63.0318 37.4778 63.0318 37.4778C63.0318 37.4778 66.4271 34.8562 74.077 35.0711C71.6703 35.7158 70.5099 36.7043 70.5099 36.7043C70.5099 36.7043 73.0026 35.6728 80.1369 38.5093C87.3141 41.3458 90.3225 47.1907 90.3225 47.1907L87.8298 60.8146L54.3934 60.5567Z" fill="#1172EB" fill-opacity="0.3"/>
<path d="M58.0027 62.0734C57.92 60.9637 57.7268 59.8234 57.0298 58.956C56.7193 58.5697 56.3323 58.2162 55.8832 58.061C55.0853 57.8059 54.1876 58.8262 53.6557 59.5488C53.3565 59.9314 53.2568 60.5266 53.3565 61.0367C53.6557 62.8221 54.3871 66.9457 54.6863 67.9234C55.052 69.1987 55.5175 69.6238 56.5481 69.6238C58.0616 69.6862 58.4146 67.6043 58.3021 66.0936L58.0027 62.0734Z" fill="#E4EFFD"/>
<path d="M85.0178 62.0415C85.0901 60.9998 85.2611 59.9354 85.8703 59.0872C86.1715 58.6678 86.5553 58.2739 87.0053 58.107C87.7568 57.8491 88.6021 58.8806 89.103 59.6112C89.3848 59.998 89.4787 60.5997 89.3848 61.1154C89.103 62.9204 88.4142 67.0893 88.1325 68.0777C87.7881 69.3671 87.3497 69.7968 86.3792 69.7968C84.9157 69.8616 84.6183 67.7992 84.7197 66.3379L85.0178 62.0415Z" fill="#E4EFFD"/>
<path d="M85.4378 58.4868C85.3884 57.8323 85.2086 57.1992 84.9989 56.5772C84.6657 55.589 84.146 53.8479 83.7192 51.5306C83.5746 50.7459 82.8904 50.1718 82.1041 50.0365C80.8965 49.8288 79.6551 49.381 78.6136 48.9267C77.9402 48.633 76.7777 48.6656 77.271 49.21C77.7424 49.7303 78.1275 51.3493 77.4259 51.3228C74.36 51.2071 71.9621 50.1785 70.0358 48.8596C69.4149 48.4345 68.7802 49.0177 69.268 49.5906C69.7253 50.1277 69.2602 50.9599 68.5768 50.7849C66.7546 50.3183 65.3289 49.6415 64.2246 48.9235C62.9399 48.0883 60.6224 48.9537 59.5613 50.0592C59.2571 50.3762 59.4303 50.3939 59.358 50.8273C58.9701 53.1496 58.4722 54.9612 58.1082 56.108C57.8105 57.0462 57.5439 57.9988 57.4956 58.982C57.2992 62.9858 57.8617 68.9666 58.0894 71.1292C58.1323 71.6879 58.3472 72.2466 58.6481 72.7193C60.7969 76.2005 64.2781 80.0685 66.2551 82.0884C67.2006 83.0339 68.4469 83.5926 69.7792 83.5926H71.4553H73.1315C74.4638 83.5926 75.7531 83.0339 76.6556 82.0884C78.6326 80.0255 82.1567 76.2005 84.2626 72.7193C84.5635 72.2466 84.7354 71.6879 84.8213 71.1292C85.0981 68.8754 85.7386 62.4749 85.4378 58.4868Z" fill="#E4EFFD"/>
<path d="M85.5091 60.9435C85.5091 60.9435 83.9619 67.0463 83.1453 69.1522C82.3288 71.2581 81.9849 71.6019 81.2543 72.2036C80.5237 72.8053 79.7501 74.1376 79.7501 74.1376C79.7501 74.1376 78.7187 70.7854 78.16 70.3556C77.6012 69.8828 76.5268 69.8399 75.4524 69.539C74.3779 69.1952 71.4555 68.8514 71.4555 68.8514C71.4555 68.8514 68.576 69.1952 67.5015 69.496C66.4271 69.8399 65.3097 69.8399 64.794 70.3126C64.2353 70.7854 63.2038 74.0946 63.2038 74.0946C63.2038 74.0946 62.4732 72.7623 61.6996 72.1606C60.969 71.559 60.6252 71.2151 59.8086 69.1092C58.992 67.0033 57.4448 60.9005 57.4448 60.9005C57.4448 60.9005 57.4448 67.691 57.5738 68.8944C57.4878 70.3556 57.5308 71.43 57.7457 72.2466C57.8746 72.0747 57.6167 73.5789 57.9606 74.3955C57.9606 74.3955 58.0895 74.8252 58.5193 75.7707C58.5193 75.7707 58.8631 76.8882 59.4648 77.5758C59.4648 77.5758 60.1954 78.9941 60.6252 79.5098C60.6252 79.5098 61.4847 80.4983 62.4732 81.1429C63.0319 81.3578 63.7195 82.4322 64.2353 82.7331C64.2353 82.7331 66.0833 84.1084 66.3841 84.1943C66.3841 84.1943 68.1462 85.2258 68.576 85.1828C68.619 85.2258 68.9198 85.1398 68.576 85.1828C68.7479 85.3977 70.1661 86.5151 71.4984 86.5151C72.8307 86.5151 74.249 85.3977 74.4209 85.1828C74.0771 85.1398 74.3779 85.2258 74.4209 85.1828C74.8507 85.2258 76.6128 84.1943 76.6128 84.1943C76.9136 84.1513 78.7616 82.7331 78.7616 82.7331C79.2774 82.4322 79.965 81.4008 80.5237 81.1429C81.5122 80.4553 82.3717 79.5098 82.3717 79.5098C82.8015 78.9941 83.5321 77.5758 83.5321 77.5758C84.1338 76.8882 84.4776 75.7707 84.4776 75.7707C84.9504 74.8252 85.0363 74.3955 85.0363 74.3955C85.3372 73.6219 85.0793 72.0747 85.2512 72.2466C85.4661 71.387 85.5091 70.3126 85.4231 68.8944C85.5091 67.734 85.5091 60.9435 85.5091 60.9435ZM77.3434 76.2435C77.3004 76.8882 76.8706 77.5328 76.0541 78.2634C75.2375 78.9511 74.163 78.1775 74.0341 77.6188C73.9052 77.0601 73.5184 74.9971 73.5184 74.9971H71.4555H69.3926C69.3926 74.9971 69.0058 77.103 68.8768 77.6188C68.7479 78.1345 67.6735 78.9511 66.8569 78.2634C66.0403 77.5758 65.6105 76.8882 65.5676 76.2435C65.5246 75.5988 65.6965 74.6963 65.6965 74.6963C65.6965 74.6963 65.9544 74.1376 65.9114 73.7508C65.8684 73.364 66.0403 72.4615 66.0403 72.4615L66.1692 72.0747C66.1692 72.0747 66.8569 72.4185 67.2867 72.3755C67.6735 72.3325 71.4555 72.5474 71.4555 72.5474C71.4555 72.5474 75.1945 72.3325 75.6243 72.3755C76.0111 72.4185 76.7417 72.0747 76.7417 72.0747L76.8706 72.4615C76.8706 72.4615 77.0425 73.321 76.9996 73.7508C76.9566 74.1376 77.2144 74.6963 77.2144 74.6963C77.1715 74.6963 77.3434 75.5988 77.3434 76.2435Z" fill="white"/>
<path d="M85.5091 60.9435C85.5091 60.9435 83.9619 67.0463 83.1453 69.1522C82.3288 71.2581 81.9849 71.6019 81.2543 72.2036C80.5237 72.8053 79.7501 74.1376 79.7501 74.1376C79.7501 74.1376 78.7187 70.7854 78.16 70.3556C77.6012 69.8828 76.5268 69.8399 75.4524 69.539C74.3779 69.1952 71.4555 68.8514 71.4555 68.8514C71.4555 68.8514 68.576 69.1952 67.5015 69.496C66.4271 69.8399 65.3097 69.8399 64.794 70.3126C64.2353 70.7854 63.2038 74.0946 63.2038 74.0946C63.2038 74.0946 62.4732 72.7623 61.6996 72.1606C60.969 71.559 60.6252 71.2151 59.8086 69.1092C58.992 67.0033 57.4448 60.9005 57.4448 60.9005C57.4448 60.9005 57.4448 67.691 57.5738 68.8944C57.4878 70.3556 57.5308 71.43 57.7457 72.2466C57.8746 72.0747 57.6167 73.5789 57.9606 74.3955C57.9606 74.3955 58.0895 74.8252 58.5193 75.7707C58.5193 75.7707 58.8631 76.8882 59.4648 77.5758C59.4648 77.5758 60.1954 78.9941 60.6252 79.5098C60.6252 79.5098 61.4847 80.4983 62.4732 81.1429C63.0319 81.3578 63.7195 82.4322 64.2353 82.7331C64.2353 82.7331 66.0833 84.1084 66.3841 84.1943C66.3841 84.1943 68.1462 85.2258 68.576 85.1828C68.619 85.2258 68.9198 85.1398 68.576 85.1828C68.7479 85.3977 70.1661 86.5151 71.4984 86.5151C72.8307 86.5151 74.249 85.3977 74.4209 85.1828C74.0771 85.1398 74.3779 85.2258 74.4209 85.1828C74.8507 85.2258 76.6128 84.1943 76.6128 84.1943C76.9136 84.1513 78.7616 82.7331 78.7616 82.7331C79.2774 82.4322 79.965 81.4008 80.5237 81.1429C81.5122 80.4553 82.3717 79.5098 82.3717 79.5098C82.8015 78.9941 83.5321 77.5758 83.5321 77.5758C84.1338 76.8882 84.4776 75.7707 84.4776 75.7707C84.9504 74.8252 85.0363 74.3955 85.0363 74.3955C85.3372 73.6219 85.0793 72.0747 85.2512 72.2466C85.4661 71.387 85.5091 70.3126 85.4231 68.8944C85.5091 67.734 85.5091 60.9435 85.5091 60.9435ZM77.3434 76.2435C77.3004 76.8882 76.8706 77.5328 76.0541 78.2634C75.2375 78.9511 74.163 78.1775 74.0341 77.6188C73.9052 77.0601 73.5184 74.9971 73.5184 74.9971H71.4555H69.3926C69.3926 74.9971 69.0058 77.103 68.8768 77.6188C68.7479 78.1345 67.6735 78.9511 66.8569 78.2634C66.0403 77.5758 65.6105 76.8882 65.5676 76.2435C65.5246 75.5988 65.6965 74.6963 65.6965 74.6963C65.6965 74.6963 65.9544 74.1376 65.9114 73.7508C65.8684 73.364 66.0403 72.4615 66.0403 72.4615L66.1692 72.0747C66.1692 72.0747 66.8569 72.4185 67.2867 72.3755C67.6735 72.3325 71.4555 72.5474 71.4555 72.5474C71.4555 72.5474 75.1945 72.3325 75.6243 72.3755C76.0111 72.4185 76.7417 72.0747 76.7417 72.0747L76.8706 72.4615C76.8706 72.4615 77.0425 73.321 76.9996 73.7508C76.9566 74.1376 77.2144 74.6963 77.2144 74.6963C77.1715 74.6963 77.3434 75.5988 77.3434 76.2435Z" fill="#E2EEFD"/>
</g>
</g>
<g filter="url(#filter0_f_218_1308)">
<path d="M45.2883 26.1593H99.2551V58.9945H45.2883V26.1593Z" fill="url(#paint1_linear_218_1308)"/>
</g>
<g filter="url(#filter1_df_218_1308)">
<path fill-rule="evenodd" clip-rule="evenodd" d="M45.2886 58.7507C45.2886 58.616 45.3977 58.5068 45.5324 58.5068L99.0115 58.5068C99.1462 58.5068 99.2553 58.616 99.2553 58.7506C99.2553 58.8853 99.1462 58.9945 99.0115 58.9945L45.5324 58.9945C45.3977 58.9945 45.2886 58.8853 45.2886 58.7507Z" fill="url(#paint2_linear_218_1308)"/>
</g>
<path fill-rule="evenodd" clip-rule="evenodd" d="M53.0902 32.8795C48.9295 32.8795 45.5565 36.2525 45.5565 40.4132V46.1025H45.0192V40.4132C45.0192 35.9557 48.6327 32.3422 53.0902 32.3422H58.7795V32.8795H53.0902ZM91.4522 32.8795H85.7629V32.3422H91.4522C95.9097 32.3422 99.5233 35.9557 99.5233 40.4132V46.1025H98.9859V40.4132C98.9859 36.2525 95.613 32.8795 91.4522 32.8795ZM45.5565 73.0859V78.7752C45.5565 82.9359 48.9295 86.3089 53.0903 86.3089H58.7795V86.8462H53.0903C48.6327 86.8462 45.0192 83.2327 45.0192 78.7752V73.0859H45.5565ZM98.9859 78.7752V73.0859H99.5233V78.7752C99.5233 83.2327 95.9097 86.8462 91.4522 86.8462H85.7629V86.3089H91.4522C95.613 86.3089 98.9859 82.9359 98.9859 78.7752Z" fill="#00A5FF"/>
<defs>
<filter id="filter0_f_218_1308" x="44.3808" y="25.2517" width="55.7819" height="34.6503" filterUnits="userSpaceOnUse" color-interpolation-filters="sRGB">
<feFlood flood-opacity="0" result="BackgroundImageFix"/>
<feBlend mode="normal" in="SourceGraphic" in2="BackgroundImageFix" result="shape"/>
<feGaussianBlur stdDeviation="0.453783" result="effect1_foregroundBlur_218_1308"/>
</filter>
<filter id="filter1_df_218_1308" x="43.4734" y="56.6917" width="57.5971" height="4.11792" filterUnits="userSpaceOnUse" color-interpolation-filters="sRGB">
<feFlood flood-opacity="0" result="BackgroundImageFix"/>
<feColorMatrix in="SourceAlpha" type="matrix" values="0 0 0 0 0 0 0 0 0 0 0 0 0 0 0 0 0 0 127 0" result="hardAlpha"/>
<feOffset/>
<feGaussianBlur stdDeviation="0.907566"/>
<feColorMatrix type="matrix" values="0 0 0 0 0 0 0 0 0 0.442 0 0 0 0 1 0 0 0 0.15 0"/>
<feBlend mode="normal" in2="BackgroundImageFix" result="effect1_dropShadow_218_1308"/>
<feBlend mode="normal" in="SourceGraphic" in2="effect1_dropShadow_218_1308" result="shape"/>
<feGaussianBlur stdDeviation="0.0907566" result="effect2_foregroundBlur_218_1308"/>
</filter>
<linearGradient id="paint0_linear_218_1308" x1="72.3209" y1="-66.3126" x2="72.3209" y2="125.021" gradientUnits="userSpaceOnUse">
<stop stop-color="#1172EB"/>
<stop offset="1" stop-color="#1172EB" stop-opacity="0"/>
</linearGradient>
<linearGradient id="paint1_linear_218_1308" x1="72.2717" y1="26.1593" x2="72.2717" y2="90.2042" gradientUnits="userSpaceOnUse">
<stop stop-color="#BFDBFF" stop-opacity="0"/>
<stop offset="1" stop-color="#4DA1FF"/>
</linearGradient>
<linearGradient id="paint2_linear_218_1308" x1="45.2886" y1="59.3525" x2="98.7677" y2="59.3525" gradientUnits="userSpaceOnUse">
<stop stop-color="#BFDBFF" stop-opacity="0"/>
<stop offset="0.505208" stop-color="#2980FF"/>
<stop offset="1" stop-color="#BFDBFF" stop-opacity="0"/>
</linearGradient>
<clipPath id="clip0_218_1308">
<rect width="74.4896" height="59.1652" fill="white" transform="translate(35.1688 34.4084)"/>
</clipPath>
</defs>
</svg>
