<svg width="167" height="175" viewBox="0 0 167 175" fill="none" xmlns="http://www.w3.org/2000/svg">
<path d="M75.9801 157.883C103.85 159.965 102.086 129.365 118.047 125.06C134.032 120.67 152.669 112.517 153.466 92.828C154.263 73.139 141.843 53.6518 129.352 43.6403C103.694 23.0708 63.5931 25.016 38.9276 45.4304C14.3474 65.8676 6.54284 93.6301 23.6918 122.418C40.9091 150.951 57.3509 156.452 75.9801 157.883Z" fill="#F5F1FB"/>
<path d="M110.119 43C121.993 43 131.619 33.3741 131.619 21.5C131.619 9.62588 121.993 0 110.119 0C98.245 0 88.6191 9.62588 88.6191 21.5C88.6191 33.3741 98.245 43 110.119 43Z" fill="#9176D7"/>
<path d="M99.6191 22.0957L106.619 29.5957L120.619 14.5957" stroke="white" stroke-width="3.5" stroke-miterlimit="10" stroke-linecap="round" stroke-linejoin="round"/>
<mask id="mask0_901_11436" style="mask-type:alpha" maskUnits="userSpaceOnUse" x="121" y="22" width="37" height="65">
<path d="M154.857 85.8478L126.457 86.5478C124.757 86.5478 123.457 85.2478 123.257 83.4478L121.757 26.3478C121.757 24.6478 123.057 23.3478 124.757 23.1478L153.157 22.4478C154.857 22.4478 156.157 23.7478 156.357 25.5478L157.857 82.6478C157.957 84.4478 156.557 85.8478 154.857 85.8478Z" fill="white"/>
</mask>
<g mask="url(#mask0_901_11436)">
<path d="M154.857 85.8478L126.457 86.5478C124.757 86.5478 123.457 85.2478 123.257 83.4478L121.757 26.3478C121.757 24.6478 123.057 23.3478 124.757 23.1478L153.157 22.4478C154.857 22.4478 156.157 23.7478 156.357 25.5478L157.857 82.6478C157.957 84.4478 156.557 85.8478 154.857 85.8478Z" fill="white"/>
<path d="M166.856 85.8478C166.756 82.5478 166.056 79.2478 164.757 76.1478C163.457 73.0478 161.657 70.3478 159.257 67.9478C156.957 65.6478 154.156 63.8478 151.156 62.6478C148.156 61.4478 144.956 60.8478 141.656 60.9478C138.456 60.9478 135.256 61.7478 132.356 63.0478C129.456 64.3478 126.756 66.3478 124.556 68.7478C122.356 71.1478 120.556 74.0478 119.456 77.1478C118.356 80.2478 117.756 83.5478 117.856 86.9478L166.856 85.8478Z" fill="#9176D7"/>
<path d="M144.357 36.0478C153.957 34.6478 164.257 44.1478 164.557 52.9478C164.857 61.7478 158.457 69.6478 158.457 69.6478L144.457 61.7478L143.657 39.7478L144.357 36.0478Z" fill="#2F2250"/>
<path d="M125.057 70.4476C125.057 70.4476 114.957 64.7476 114.757 54.9476C114.757 45.2476 124.157 43.1476 124.157 43.1476C124.157 43.1476 126.857 27.6476 142.957 32.0476C159.157 36.4476 141.257 62.8476 134.757 64.9476C129.557 66.6476 125.057 70.4476 125.057 70.4476Z" fill="#2F2250"/>
<path d="M140.657 36.1476C134.357 36.3476 131.057 41.9476 131.257 47.9476C131.457 53.9476 136.257 56.9476 136.257 56.9476L136.457 63.3476L141.957 68.1476L146.657 62.9476L146.457 56.5476C146.457 56.5476 150.957 53.2476 150.757 47.1476C150.657 41.2476 146.957 35.9476 140.657 36.1476Z" fill="#E3DCF6"/>
<path d="M141.057 46.4478L141.157 49.6478" stroke="#2F2250" stroke-width="0.5" stroke-miterlimit="10" stroke-linecap="round" stroke-linejoin="round"/>
<path d="M144.556 51.6479C144.556 51.6479 143.456 52.7479 141.256 52.8479C139.156 52.9479 137.856 51.8479 137.856 51.8479" stroke="#2F2250" stroke-width="0.5" stroke-miterlimit="10" stroke-linecap="round" stroke-linejoin="round"/>
<path d="M137.057 47.6478C137.457 47.6478 137.757 47.1478 137.757 46.5478C137.757 45.9478 137.357 45.4478 136.957 45.4478C136.557 45.4478 136.257 45.9478 136.257 46.5478C136.357 47.2478 136.757 47.7478 137.057 47.6478Z" fill="#2F2250"/>
<path d="M144.957 47.3479C145.357 47.3479 145.657 46.8479 145.657 46.2479C145.657 45.6479 145.257 45.1479 144.857 45.1479C144.457 45.1479 144.157 45.6479 144.157 46.2479C144.257 46.9479 144.557 47.4479 144.957 47.3479Z" fill="#2F2250"/>
<path d="M130.857 50.6475C132.357 50.5475 133.557 49.3475 133.457 47.8475C133.357 46.3475 132.157 45.1475 130.657 45.2475C129.157 45.3475 127.957 46.5475 128.057 48.0475C128.057 49.5475 129.357 50.7475 130.857 50.6475Z" fill="#E3DCF6"/>
<path d="M150.557 49.9478C152.057 49.8478 153.257 48.6478 153.157 47.1478C153.057 45.6478 151.857 44.4478 150.357 44.5478C148.857 44.6478 147.657 45.8478 147.757 47.3478C147.857 48.8478 149.057 50.0478 150.557 49.9478Z" fill="#E3DCF6"/>
<path d="M145.357 37.3476C145.357 37.3476 140.657 44.3476 130.957 44.6476C130.957 44.6476 126.057 35.2476 134.057 32.8476C142.057 30.3476 145.357 37.3476 145.357 37.3476Z" fill="#2F2250"/>
<path d="M139.157 43.7479C139.157 43.7479 136.757 42.6479 134.757 44.7479" stroke="#2F2250" stroke-width="0.5" stroke-miterlimit="10" stroke-linecap="round" stroke-linejoin="round"/>
<path d="M142.557 43.5476C142.557 43.5476 144.857 42.2476 147.057 44.2476" stroke="#2F2250" stroke-width="0.5" stroke-miterlimit="10" stroke-linecap="round" stroke-linejoin="round"/>
<path d="M154.857 85.8478L126.457 86.5478C124.757 86.5478 123.457 85.2478 123.257 83.4478L121.757 26.3478C121.757 24.6478 123.057 23.3478 124.757 23.1478L153.157 22.4478C154.857 22.4478 156.157 23.7478 156.357 25.5478L157.857 82.6478C157.957 84.4478 156.557 85.8478 154.857 85.8478Z" stroke="#876D91" stroke-width="1.5" stroke-miterlimit="10"/>
<path d="M139.856 27.1479H143.656" stroke="#876D91" stroke-width="0.5" stroke-miterlimit="10" stroke-linecap="round" stroke-linejoin="round"/>
</g>
<path d="M125.257 92.048C125.557 91.548 114.357 77.348 117.957 73.148C121.557 68.948 131.957 65.948 132.957 68.848C133.957 71.748 129.957 80.348 122.257 79.848" fill="#F5F1FB"/>
<path d="M76.4636 50C76.4636 50 90.7047 59.1752 92.4596 70.9522C94.2144 82.7293 80.9182 93 80.9182 93L45.6191 79.1688L76.4636 50Z" fill="#2F2250"/>
<path d="M31.6596 124.996C22.8643 125.2 15.2017 117.707 18.3334 109.192C18.3334 109.124 18.4 109.056 18.4 108.988C20.3323 103.811 23.1974 99.0421 26.9288 95.023C30.6601 91.0039 35.0578 87.8023 39.9885 85.5543C44.9192 83.3063 50.183 82.0802 55.5135 82.012C60.844 81.8758 66.1745 82.8976 71.1718 84.9412C76.1692 86.9848 80.7001 89.9821 84.5647 93.865C88.4293 97.7478 91.4943 102.312 93.6265 107.421C93.6932 107.557 93.7598 107.693 93.7598 107.83C97.158 116.14 89.9618 123.77 81.2331 123.906L31.6596 124.996Z" fill="#9176D7"/>
<path d="M49.4883 83L49.997 64.3276C49.997 64.3276 40.5235 60.1402 41.7244 53.2514C42.9252 46.4302 49.7969 48.9291 49.7969 48.9291C49.7969 48.9291 52.3988 39.4738 62.0724 38.1231C71.7461 36.7048 77.7504 47.8485 77.617 55.8179C77.3501 67.6369 72.8135 73.5802 61.2718 71.7566V83" fill="#E3DCF7"/>
<path d="M70.6191 62L69.6191 56" stroke="#2F2250" stroke-width="1.5" stroke-miterlimit="10" stroke-linecap="round"/>
<path d="M69.6191 66.3838C67.901 67.3126 64.1464 67.8434 62.6191 63" stroke="#2F2250" stroke-width="1.5" stroke-linecap="round"/>
<path d="M51.9714 85.6869C62.3601 81.738 53.9405 46.8792 53.9405 46.8792C64.9403 52.394 76.6191 48.7855 76.6191 48.7855C76.6191 48.7855 72.4772 32.105 54.6195 35.4411C36.8296 38.7772 33.7062 50.76 33.7062 50.76C33.7062 50.76 14.83 56.8875 15.6448 72.6829C16.4596 88.5464 26.1437 96 26.1437 96C26.1437 96 31.5778 91.3624 38.7052 88.5108C43.0327 86.7794 48.8419 86.8957 51.9714 85.6869Z" fill="#2F2250"/>
<path d="M72.7687 57.9856C73.5929 58.118 74.3422 57.3237 74.5669 56.1986C74.7917 55.0734 74.2672 54.1468 73.443 54.0144C72.6188 53.882 71.8696 54.6763 71.6448 55.8014C71.4949 56.8604 72.0194 57.8532 72.7687 57.9856Z" fill="#2F2250"/>
<path d="M64.7687 56.9856C65.5929 57.118 66.3422 56.3237 66.5669 55.1986C66.7917 54.0734 66.2672 53.1468 65.443 53.0144C64.6188 52.882 63.8696 53.6763 63.6448 54.8014C63.4949 55.8604 64.0194 56.8532 64.7687 56.9856Z" fill="#2F2250"/>
<path d="M151.847 90.2023C150.518 89.9226 142.045 84.0224 142.127 81.8254C142.316 77.9714 152.876 82.0529 152.876 82.0529C152.876 82.0529 144.941 78.9655 145.568 76.387C146.25 73.2911 154.054 75.8983 154.054 75.8983C154.054 75.8983 148.102 68.8324 150.89 65.4325C153.679 62.0327 160.741 69.8503 160.634 73.7269C160.34 77.6407 156.272 90.097 151.847 90.2023Z" fill="#F5F1FB" stroke="#2F2250" stroke-width="1.5" stroke-miterlimit="10" stroke-linecap="round" stroke-linejoin="round"/>
<path d="M63.6191 110.187C95.6191 144.687 115.119 146.5 122.119 141C129.119 135.5 132.119 112 147.619 88.5" stroke="#2F2250" stroke-width="1.5" stroke-miterlimit="10" stroke-linecap="round"/>
<path d="M122.36 79.848C130.06 80.448 133.96 71.748 133.06 68.848C132.06 65.948 121.66 68.948 118.06 73.148C114.46 77.348 125.56 91.548 125.36 92.048L110.956 120.933L88.1191 98.0957" stroke="#2F2250" stroke-width="1.5" stroke-miterlimit="10" stroke-linecap="round"/>
<path d="M57.6191 139L48.6191 112" stroke="#2F2250" stroke-width="1.5" stroke-miterlimit="10" stroke-linecap="round"/>
<path d="M20.6191 140L17.6191 113" stroke="#2F2250" stroke-width="1.5" stroke-miterlimit="10" stroke-linecap="round"/>
</svg>
